<svg viewBox="0 0 120 120" xmlns="http://www.w3.org/2000/svg" xml:space="preserve" fill-rule="evenodd" clip-rule="evenodd">
  <path d="M104.776 35.387c-.285-.59-.702-1.126-1.322-1.47-.682-.374-1.43-.437-2.129-.313l-.049-.026C90.768 35.4 80.165 43.432 73.77 55.745c-6.889 13.268-6.99 27.835-1.376 37.804 11.275-.92 23.047-9.225 29.938-22.492 6.421-12.352 6.938-25.822 2.445-35.671v.001Z" fill="#828d8c"/>
  <path d="M101.255 34.963C90.9 36.86 80.844 45.045 74.955 56.381c-6.233 12-6.913 25.907-1.814 35.726C84 90.84 94.914 82.423 101.145 70.422c5.958-11.46 6.882-24.664 2.414-34.465-.188-.384-.438-.672-.746-.842-.386-.2-.83-.258-1.255-.169-.1.019-.202.025-.303.017ZM72.393 94.911c-.482 0-.93-.264-1.164-.687-6.083-10.804-5.565-25.792 1.354-39.115 6.411-12.344 17.054-20.895 28.468-22.875.109-.02.22-.024.33-.014a4.502 4.502 0 0 1 2.71.501c.806.445 1.44 1.139 1.886 2.064 4.827 10.58 3.88 24.712-2.46 36.908C96.597 85.013 84.712 93.91 72.5 94.906l-.108.005Z" fill="#121716"/>
  <path d="M99.857 41.166a35.735 35.735 0 0 1 7.712 5.666c-.308-4.117-1.225-8.01-2.793-11.446-.285-.588-.702-1.125-1.322-1.468-.684-.375-1.43-.438-2.129-.314l-.049-.026c-3.623.63-7.247 2.045-10.718 4.066a35.57 35.57 0 0 1 9.3 3.522Zm-16.431 3.001a69.649 69.649 0 0 0-7.917 9.474c5.179-.361 10.898.912 16.08 4 5.156 3.064 9.027 7.49 11.247 12.23a70.13 70.13 0 0 0 4.179-11.783c-2.694-3.555-6.175-6.713-10.374-9.214-4.272-2.548-8.769-4.08-13.215-4.708v.001ZM70.07 60.892a85.52 85.52 0 0 0-4.472 10.404 26.302 26.302 0 0 1 14.48 3.985c4.618 2.852 6.68 7.19 8.786 11.653 4.16-2.04 6.193-5.945 8.408-9.17A33.244 33.244 0 0 0 85.77 65.79a32.623 32.623 0 0 0-15.7-4.898Z" fill="#121716"/>
  <path d="M32.088 22.79c4.385 4.452 5.56 10.48 2.623 13.463-2.934 2.982-8.87 1.79-13.253-2.666-4.382-4.451-5.557-10.48-2.623-13.464 2.936-2.98 8.87-1.786 13.253 2.666Z" fill="#828d8c"/>
  <path d="M29.18 25.745c2.203 2.228 2.905 5.14 1.578 6.486-1.335 1.354-4.197.642-6.396-1.594-2.196-2.234-2.897-5.137-1.567-6.489 1.333-1.354 4.187-.639 6.386 1.595v.002Z" fill="#121716"/>
  <path d="M23.124 19.846c-.965 0-2.33.214-3.34 1.24-2.368 2.407-1.165 7.693 2.623 11.54 2.407 2.447 5.403 3.908 8.014 3.908.965 0 2.332-.215 3.341-1.242 1.096-1.112 1.474-2.871 1.07-4.953-.446-2.283-1.758-4.62-3.693-6.586-2.407-2.447-5.403-3.907-8.015-3.907Zm7.297 19.412c-3.307 0-7.012-1.76-9.91-4.706-4.982-5.062-6.133-11.822-2.623-15.39 1.315-1.336 3.123-2.039 5.236-2.039 3.307 0 7.01 1.757 9.91 4.704 2.308 2.341 3.877 5.177 4.426 7.983.587 3.003-.055 5.633-1.802 7.407-1.313 1.336-3.126 2.04-5.237 2.04Z" fill="#121716"/>
  <path d="M72.392 22.79c-4.384 4.452-5.56 10.481-2.623 13.463 2.935 2.982 8.87 1.79 13.252-2.666 4.382-4.451 5.558-10.48 2.623-13.462-2.934-2.982-8.87-1.788-13.252 2.664Z" fill="#828d8c"/>
  <path d="M75.299 25.745c-2.202 2.228-2.904 5.14-1.577 6.486 1.336 1.354 4.198.642 6.396-1.594 2.197-2.234 2.899-5.137 1.569-6.489-1.334-1.354-4.19-.639-6.388 1.595v.002Z" fill="#121716"/>
  <path d="M73.34 23.753c-1.935 1.966-3.246 4.304-3.69 6.586-.407 2.084-.027 3.841 1.067 4.953 1.011 1.027 2.378 1.242 3.344 1.242 2.609 0 5.604-1.46 8.013-3.908 3.788-3.849 4.99-9.132 2.623-11.538-1.01-1.026-2.375-1.24-3.34-1.24-2.614 0-5.608 1.458-8.017 3.907v-.002Zm-4.518 13.464c-1.747-1.773-2.387-4.404-1.8-7.407.546-2.806 2.117-5.642 4.423-7.983 2.9-2.947 6.604-4.704 9.912-4.704 2.112 0 3.921.705 5.234 2.04 3.512 3.567 2.36 10.327-2.621 15.39-2.9 2.946-6.604 4.703-9.91 4.703-2.112 0-3.924-.704-5.238-2.038v-.001Z" fill="#121716"/>
  <path d="M81.838 33.863c-6.91-9.684-17.556-16.74-29.598-16.74-12.044 0-22.687 7.056-29.599 16.74-8.407 11.778-13.28 28.474-8.277 42.596 4.237 11.967 14.406 21.057 26.364 24.521a41.351 41.351 0 0 0 11.512 1.624c3.887 0 7.773-.54 11.51-1.624 11.96-3.463 22.13-12.555 26.365-24.52 5.003-14.123.132-30.819-8.277-42.596v-.001Z" fill="#828d8c"/>
  <path d="M84.694 39.221c-.48-1.934-1.696-3.77-2.83-5.358a45.325 45.325 0 0 0-4.814-5.683c-6.249-3.048-13.392-3.042-18.836.69-2.838 1.945-4.827 4.665-5.974 7.763-1.146-3.098-3.137-5.816-5.974-7.764-5.446-3.73-12.588-3.737-18.836-.69a45.196 45.196 0 0 0-4.815 5.684c-1.134 1.59-2.35 3.424-2.828 5.358-.501 2.015-1.222 4.716-1.127 6.754.154 3.315 2.173 5.755 4.838 7.508.651.432 7.624 5.853 6.975 6.238.491-.293 1.112-.65 1.803-1.019v.62c2.528-1.498 6.204-3.332 8.665-3.045l.03.004c.073.01.13.04.198.054.678.18 1.272.516 1.727 1.08 1.053 1.3 1.148 2.804.782 4.264.27-.202.514-.458.78-.674-.031 1.007-.255 1.77-.255 1.77l-.458.654c2.792.535 5.626.805 8.469.803h.041c2.945 0 5.781-.285 8.48-.803l-.459-.654s-.225-.763-.254-1.77c.265.216.509.472.781.674-.367-1.46-.272-2.963.78-4.264.455-.564 1.05-.9 1.727-1.08.07-.014.127-.046.198-.054l.03-.004c2.461-.288 6.137 1.547 8.665 3.046v-.62c.691.368 1.312.725 1.805 1.018-.65-.386 6.322-5.807 6.972-6.236 2.666-1.755 4.686-4.195 4.839-7.51.095-2.038-.625-4.739-1.125-6.754ZM52.24 69.783c-10.15 0-18.372 10.29-18.372 22.981 0 2.536.34 4.965.945 7.243 1.11.337 2.21.702 3.348.971a61.167 61.167 0 0 0 14.079 1.625c4.754 0 9.506-.54 14.08-1.625 1.138-.27 2.237-.632 3.348-.971.605-2.278.945-4.707.945-7.243 0-12.692-8.224-22.98-18.372-22.98h-.001Z" fill="#ededea"/>
  <path d="M54.313 48.954a6.06 6.06 0 0 1-1.4.264c.036-.083.105-.148.105-.24v-1.846c.083-.066.175-.112.248-.202l1.425-1.75c.563-.691.298-1.258-.586-1.258h-3.728c-.886 0-1.15.567-.587 1.257l1.425 1.75c.12.146.266.266.432.353v1.696c0 .092.064.157.098.24a6.347 6.347 0 0 1-1.395-.264c-.582-.189-1.783-.896-1.949.202v.2c0 2.2 1.75 3.982 3.926 3.986h.01c2.175-.004 3.923-1.786 3.923-3.987v-.199c-.164-1.098-1.365-.39-1.946-.202h-.001Z" fill="#121716"/>
  <path d="M52.24 18.482c-10.783 0-21.176 5.9-28.51 16.18C14.492 47.599 11.311 63.823 15.626 76c3.962 11.197 13.722 20.268 25.469 23.67a40.478 40.478 0 0 0 22.286 0C75.132 96.268 84.89 87.197 88.854 76c4.315-12.177 1.134-28.402-8.1-41.337-7.339-10.282-17.73-16.18-28.514-16.18Zm0 85.484c-4.02.005-8.019-.56-11.88-1.679-12.751-3.693-22.94-13.174-27.259-25.366-5.588-15.78.705-33.002 8.459-43.86C29.403 22.066 40.587 15.76 52.238 15.76c11.653 0 22.837 6.307 30.685 17.302 7.749 10.858 14.043 28.08 8.453 43.86-4.316 12.192-14.505 21.672-27.258 25.364a42.497 42.497 0 0 1-11.878 1.678v.003Z" fill="#121716"/>
  <path d="M41.47 33.181a7.704 7.704 0 0 0-3.751-.935c-3.791 0-7.567 3.236-9.418 5.412-3.11 3.658-5.99 11.014-.038 13.538 2.151.913 4.523 1.189 6.837 1.232 2.957.058 6.117-.011 8.449-2.129 2.366-2.148 2.749-5.66 2.528-8.707-.285-3.958-1.921-6.948-4.607-8.411Z" fill="#121716"/>
  <path d="M41.61 39.538c-.04-.52-.605-1.095-.934-1.394a3.998 3.998 0 0 0-2.65-1.013c-.31 0-.628.035-.95.104-1.245.265-2.292 1.028-2.87 2.095-.22.404-.595 1.21-.499 1.67.081.383.438.647.802.714.484.09.674-.14.904-.54l.144-.243c.7-1.103 1.69-1.71 2.788-1.71.613 0 .989.18 1.546.556.367.249.766.745 1.264.478.359-.193.475-.446.456-.717Z" fill="#fffffe"/>
  <path d="M63.01 33.181a7.71 7.71 0 0 1 3.752-.935c3.791 0 7.565 3.236 9.416 5.412 3.114 3.658 5.993 11.014.04 13.538-2.151.913-4.525 1.189-6.838 1.232-2.956.058-6.114-.011-8.448-2.129-2.367-2.148-2.749-5.66-2.528-8.707.285-3.958 1.92-6.948 4.606-8.411Z" fill="#121716"/>
  <path d="M62.869 39.538c.041-.52.605-1.095.935-1.394a3.998 3.998 0 0 1 2.65-1.013c.31 0 .627.035.949.104 1.246.265 2.294 1.028 2.871 2.095.221.404.595 1.21.498 1.67-.08.383-.438.647-.801.714-.484.09-.674-.14-.904-.54l-.143-.243c-.701-1.103-1.691-1.71-2.788-1.71-.616 0-.99.18-1.548.556-.366.249-.766.745-1.264.478-.358-.193-.475-.446-.455-.717Z" fill="#fffffe"/>
  <path d="M60.652 18.692c.061-.202.127-.398.184-.613a39.478 39.478 0 0 0-8.596-.956c-2.94 0-5.812.337-8.596.958.057.213.122.409.184.611l-1.464.26.206.633.064.495c.428-.153.881-.25 1.364-.25.778 0 1.6.325 2.241.756 2.414 1.649 4.182 3.872 5.376 6.39.133.195.326.349.602.349a.75.75 0 0 0 .651-.403h.021c1.196-2.496 2.953-4.698 5.351-6.336.642-.43 1.463-.756 2.242-.756.484 0 .936.099 1.363.25l.065-.495.205-.632-1.463-.261Z" fill="#121716"/>
  <path d="M52.316 104.24c15.522 0 28.106-12.582 28.106-28.105 0-15.522-12.582-28.107-28.106-28.107-15.521 0-28.106 12.583-28.106 28.107 0 15.521 12.583 28.106 28.106 28.106Z" fill="#13ce66" fill-rule="nonzero" stroke="#1ab35e" stroke-width="3.0645"/>
  <path d="M25.637 64.336c-.371 0-.725-.156-.976-.429a1.384 1.384 0 0 1 .058-1.926c.306-.291 3.055-2.893 5.004-3.847a1.335 1.335 0 0 1 1.788.636 1.37 1.37 0 0 1-.625 1.815c-1.336.655-3.579 2.663-4.33 3.38-.247.238-.576.371-.92.371Z" fill="#121716"/>
  <path d="M32.163 83.428c4.393 4.464 5.367 10.72 2.168 13.967-3.2 3.251-9.356 2.269-13.75-2.196-4.392-4.47-5.367-10.72-2.161-13.97 3.193-3.253 9.351-2.267 13.744 2.2h-.001Z" fill="#828d8c"/>
  <path d="M30.684 88.604c2.415 2.458 2.812 6.037.883 8.001-1.931 1.963-5.461 1.563-7.876-.893-2.421-2.46-2.82-6.043-.886-8.007 1.93-1.962 5.461-1.559 7.88.899Z" fill="#ededea"/>
  <path d="M23.342 80.673c-1.626 0-3 .524-3.975 1.519-1.238 1.256-1.732 3.156-1.39 5.353.365 2.355 1.626 4.73 3.553 6.69 3.696 3.762 9.29 4.807 11.854 2.197 1.235-1.256 1.727-3.155 1.387-5.352-.367-2.356-1.628-4.731-3.555-6.688-2.291-2.33-5.233-3.719-7.876-3.719h.002Zm6.063 20.002c-3.388 0-6.95-1.647-9.77-4.514-2.326-2.363-3.854-5.274-4.306-8.193-.48-3.08.282-5.816 2.142-7.703 1.487-1.516 3.517-2.316 5.869-2.316 3.386 0 6.949 1.647 9.771 4.517 2.325 2.361 3.854 5.27 4.306 8.19.48 3.08-.28 5.816-2.138 7.702-1.492 1.517-3.524 2.317-5.874 2.317Z" fill="#121716"/>
  <path d="M72.317 83.428c-4.393 4.464-5.366 10.72-2.167 13.967 3.198 3.251 9.356 2.269 13.75-2.196 4.392-4.47 5.365-10.72 2.161-13.97-3.193-3.253-9.351-2.267-13.744 2.2Z" fill="#828d8c"/>
  <path d="M73.795 88.604c-2.413 2.458-2.811 6.037-.88 8.001 1.93 1.963 5.459 1.563 7.875-.893 2.42-2.46 2.818-6.043.886-8.007-1.932-1.962-5.461-1.559-7.88.899Z" fill="#ededea"/>
  <path d="M73.264 84.392c-1.926 1.957-3.187 4.332-3.555 6.688-.34 2.197.153 4.097 1.388 5.352 2.562 2.61 8.156 1.563 11.854-2.197 1.926-1.961 3.188-4.336 3.553-6.69.342-2.196-.153-4.099-1.391-5.353-.976-.996-2.348-1.519-3.973-1.519-2.642 0-5.586 1.391-7.876 3.719Zm-4.062 13.966c-1.859-1.886-2.619-4.622-2.14-7.702.453-2.92 1.982-5.829 4.306-8.19 2.823-2.87 6.387-4.517 9.772-4.517 2.352 0 4.382.801 5.868 2.316 1.862 1.887 2.623 4.623 2.145 7.703-.453 2.919-1.983 5.83-4.307 8.193-2.822 2.867-6.383 4.514-9.77 4.514-2.35 0-4.382-.801-5.874-2.317Z" fill="#121716"/>
  <path d="M30.195 57.816c1.994-1.236 7.757-4.385 11.455-2.125 1.933 1.18 3.053 2.997 3.157 5.126.158 3.165-1.934 6.631-5.738 9.512-2.492 1.885-6.065 2.888-9.804 2.888a20.83 20.83 0 0 1-5.893-.846c-5.602-1.654-9.822-5.595-11.885-11.1-.264-.701 2.08-.188 2.774-.454l6.716-11.426c.48 0 .872.275 1.123.648 1.068 2.007 2.074 2.966 3.673 4.492 1.327 1.27 2.778 2.467 4.422 3.285Zm44.068.034c-1.995-1.238-7.756-4.387-11.457-2.125-1.93 1.178-3.052 2.997-3.156 5.125-.157 3.164 1.935 6.63 5.738 9.511 2.493 1.886 6.066 2.888 9.805 2.888 1.961 0 3.97-.275 5.891-.844 5.604-1.655 9.822-5.597 11.886-11.1.265-.703-2.08-.19-2.773-.455L83.48 49.423c-.48 0-.874.276-1.123.65-1.068 2.005-2.073 2.964-3.673 4.492-1.329 1.269-2.778 2.465-4.422 3.284v.001Z" fill="#828d8c" fill-rule="nonzero"/>
  <path d="M64.482 71.73a2.975 2.975 0 0 0 0-4.225 3.034 3.034 0 0 0-4.25 0l-11.9 11.83-3.885-3.86a3.034 3.034 0 0 0-4.25 0 2.978 2.978 0 0 0 0 4.224l6.01 5.975a3.034 3.034 0 0 0 4.25 0l14.027-13.943h-.002Z" fill="#fff" fill-rule="nonzero"/>
  <path d="M41.65 55.691c-3.698-2.26-9.46.889-11.455 2.125-1.644-.82-3.095-2.016-4.422-3.285-1.6-1.526-2.605-2.486-3.673-4.492-.25-.373-.643-.648-1.123-.648-1.567 0-1.541 1.685-.92 2.681 1.922 3.065 4.117 5.047 7.083 7.074.835.569 1.716 1.096 2.657 1.475.409.163.882.122 1.252-.13 1.633-1.102 6.814-3.928 9.224-2.465 1.174.716 1.799 1.701 1.86 2.927.107 2.21-1.636 4.897-4.666 7.19-3.11 2.353-8.599 3.015-13.346 1.613-3.38-.996-7.88-3.448-10.13-9.453a1.33 1.33 0 0 0-1.73-.787 1.37 1.37 0 0 0-.774 1.756c2.063 5.504 6.283 9.445 11.885 11.1 1.922.568 3.93.845 5.893.845 3.739 0 7.312-1.002 9.804-2.888 3.804-2.88 5.896-6.347 5.74-9.512-.106-2.129-1.226-3.947-3.157-5.126h-.002Zm21.18 0c3.698-2.26 9.46.889 11.456 2.125 1.644-.82 3.095-2.016 4.42-3.285 1.6-1.526 2.605-2.486 3.675-4.492.25-.373.643-.648 1.121-.648 1.57 0 1.543 1.685.92 2.681-1.922 3.065-4.116 5.047-7.08 7.074-.838.569-1.719 1.096-2.66 1.475a1.344 1.344 0 0 1-1.25-.13c-1.633-1.102-6.815-3.928-9.225-2.465-1.173.716-1.8 1.701-1.859 2.927-.107 2.21 1.636 4.897 4.664 7.19 3.11 2.353 8.6 3.015 13.346 1.613 3.38-.996 7.88-3.448 10.131-9.453a1.33 1.33 0 0 1 1.729-.787 1.37 1.37 0 0 1 .775 1.756c-2.062 5.504-6.282 9.445-11.886 11.1a20.845 20.845 0 0 1-5.893.845c-3.738 0-7.312-1.002-9.803-2.888-3.805-2.88-5.896-6.347-5.738-9.512.104-2.129 1.225-3.947 3.156-5.126Z" fill="#121716"/>
  <path d="M78.843 64.336c.37 0 .724-.156.976-.429a1.386 1.386 0 0 0-.057-1.926c-.306-.291-3.055-2.893-5.006-3.847a1.336 1.336 0 0 0-1.788.636 1.377 1.377 0 0 0 .627 1.815c1.334.655 3.578 2.663 4.328 3.38.247.238.576.371.92.371Z" fill="#121716"/>
</svg>
